<?xml version="1.0" encoding="UTF-8"?>
<svg height="600" width="800" xmlns="http://www.w3.org/2000/svg" xmlns:xlink="http://www.w3.org/1999/xlink">
    <g id="Notes" font-family="'LucidaGrande', 'Lucida Grande', sans-serif" font-size="13">
        <rect fill="white" height="600.0" width="800.0" x="0.0" y="0.0" />
        <g font-size="13">
            <text x="18.0" y="176.0">Small</text>
            <text x="18.0" y="376.0">Medium</text>
            <text x="18.0" y="576.0">Large</text>
        </g>
        <g font-size="9">
            <text x="250.0" y="30.0">Ultralight</text>
            <text x="450.0" y="30.0">Regular</text>
            <text x="650.0" y="30.0">Black</text>
            <text id="template-version" fill="#505050" text-anchor="end" x="785.0" y="575.0">Template v.3.0</text>
            <a href="https://wangchujiang.com/#/app">
                <text fill="#505050" text-anchor="end" x="785.0" y="590.0">https://wangchujiang.com/#/app</text>
            </a>
        </g>
    </g>
    <g id="Guides" stroke="rgb(39, 170, 225)" stroke-width="0.5">
        <path id="Capline-S" d="M18,76 l800,0" />
        <path id="H-reference" d="M85,145.755 L87.685,145.755 L113.369,79.287 L114.052,79.287 L114.052,76 L112.148,76 L85,145.755 Z M95.693,121.536 L130.996,121.536 L130.263,119.313 L96.474,119.313 L95.693,121.536 Z M139.15,145.755 L141.787,145.755 L114.638,76 L113.466,76 L113.466,79.287 L139.15,145.755 Z" stroke="none" />
        <path id="Baseline-S" d="M18,146 l800,0" />
        <path id="left-margin-Ultralight-S" d="M219.171,56 l0,110" />
        <path id="right-margin-Ultralight-S" d="M310.829,56 l0,110" />
        <path id="left-margin-Regular-S" d="M419.171,56 l0,110" />
        <path id="right-margin-Regular-S" d="M510.829,56 l0,110" />
        <path id="left-margin-Black-S" d="M619.171,56 l0,110" />
        <path id="right-margin-Black-S" d="M710.829,56 l0,110" />
        <path id="Capline-M" d="M18,276 l800,0" />
        <path id="Baseline-M" d="M18,346 l800,0" />
        <path id="Capline-L" d="M18,476 l800,0" />
        <path id="Baseline-L" d="M18,546 l800,0" />
    </g>
    <g id="Symbols">
        <g id="Ultralight-S">
            <path d="M259.013,76.451 C248.266,78.679 239.711,85.401 235.254,95.106 C233.205,99.491 232.522,102.51 232.307,108.009 C232.127,112.467 232.019,113.114 231.3,113.94 C229.467,116.169 229.251,117.067 229.179,122.603 C229.143,127.743 229.179,127.887 230.15,129.54 C231.444,131.769 232.989,132.919 235.613,133.566 C236.764,133.889 238.058,134.464 238.489,134.86 C239.531,135.83 241.868,135.83 242.91,134.86 C243.701,134.105 243.701,133.997 243.701,122.1 C243.701,110.094 243.701,110.094 242.91,109.555 C241.904,108.836 239.495,108.836 238.309,109.519 C237.806,109.807 237.267,110.022 237.087,110.058 C236.656,110.058 237.123,104.775 237.77,101.935 C239.747,93.38 246.864,85.76 255.85,82.633 C258.546,81.698 259.624,81.519 263.542,81.375 C268.934,81.195 271.953,81.626 275.655,83.172 C286.079,87.521 292.944,97.334 292.944,107.974 C292.944,110.13 292.441,110.669 291.507,109.519 C290.931,108.836 287.948,108.8 287.014,109.483 C286.367,109.95 286.331,110.669 286.331,122.028 C286.295,133.386 286.331,134.105 286.978,134.824 C287.984,135.938 290.428,135.866 291.722,134.68 C292.261,134.177 293.124,133.781 293.627,133.781 C296.143,133.746 299.738,130.762 300.493,128.066 C300.996,126.197 300.924,118.397 300.349,116.852 C300.097,116.133 299.486,115.019 298.947,114.336 C298.12,113.221 297.977,112.682 297.797,109.16 C297.258,99.275 294.382,92.194 288.487,86.048 C284.21,81.555 279.753,78.823 274.002,77.133 C270.012,75.983 262.859,75.624 259.013,76.451" />
            <path d="M267.783,98.916 C267.1,99.599 267.065,100.102 267.065,116.816 C267.065,131.769 267.136,134.069 267.64,134.788 C268.143,135.507 268.466,135.579 271.378,135.579 C274.181,135.579 274.649,135.507 274.972,134.896 C275.188,134.464 275.332,129.935 275.368,122.926 L275.404,111.676 L276.59,122.279 C278.027,135.004 278.063,135.111 278.926,135.579 C279.753,136.01 282.772,135.651 283.886,135.004 C284.965,134.321 284.929,134.141 283.239,118.829 C282.449,111.748 281.802,105.637 281.802,105.278 C281.802,104.954 281.478,104.343 281.047,103.912 C280.4,103.265 280.04,103.193 278.459,103.409 C277.416,103.552 276.302,103.804 275.979,104.02 C275.404,104.307 275.332,104.092 275.332,101.827 C275.332,98.592 274.864,98.197 271.126,98.197 C268.97,98.197 268.359,98.341 267.783,98.916 M245.857,103.552 C245.642,104.02 245.498,109.627 245.498,119.368 C245.498,132.595 245.57,134.5 246.073,135.004 C246.9,135.83 251.68,135.83 252.363,134.968 C252.759,134.5 252.867,131.553 252.867,119.224 C252.867,106.895 252.759,103.948 252.363,103.481 C252.004,103.013 251.249,102.869 249.057,102.869 C246.648,102.869 246.181,102.977 245.857,103.552 M255.059,109.196 C254.556,109.663 254.484,111.352 254.484,122.1 C254.484,132.847 254.556,134.536 255.059,135.004 C255.886,135.866 264.261,135.83 264.944,134.968 C265.339,134.5 265.447,131.984 265.447,122.1 C265.447,112.215 265.339,109.699 264.944,109.232 C264.261,108.369 255.886,108.333 255.059,109.196 M262.572,113.473 C262.572,113.653 261.385,113.868 259.984,113.94 C257.791,114.012 257.36,113.94 257.36,113.473 C257.36,113.006 257.791,112.934 259.984,113.006 C261.385,113.078 262.572,113.257 262.572,113.473 M262.5,130.439 C263.147,131.05 261.924,131.445 259.732,131.337 C257.971,131.229 257.36,131.086 257.36,130.69 C257.36,130.295 257.935,130.187 259.804,130.187 C261.17,130.187 262.392,130.295 262.5,130.439 M232.882,140.647 C232.486,141.438 232.594,145.068 233.025,145.499 C233.133,145.643 247.403,145.823 264.692,145.931 C289.817,146.074 296.251,146.002 296.718,145.643 C297.509,144.996 297.473,140.431 296.682,140.108 C296.359,140 281.981,139.892 264.728,139.892 L233.313,139.892 Z" />
        </g>
        <g id="Regular-S">
            <path d="M459.013,76.451 C448.266,78.679 439.711,85.401 435.254,95.106 C433.205,99.491 432.522,102.51 432.307,108.009 C432.127,112.467 432.019,113.114 431.3,113.94 C429.467,116.169 429.251,117.067 429.179,122.603 C429.143,127.743 429.179,127.887 430.15,129.54 C431.444,131.769 432.989,132.919 435.613,133.566 C436.764,133.889 438.058,134.464 438.489,134.86 C439.531,135.83 441.868,135.83 442.91,134.86 C443.701,134.105 443.701,133.997 443.701,122.1 C443.701,110.094 443.701,110.094 442.91,109.555 C441.904,108.836 439.495,108.836 438.309,109.519 C437.806,109.807 437.267,110.022 437.087,110.058 C436.656,110.058 437.123,104.775 437.77,101.935 C439.747,93.38 446.864,85.76 455.85,82.633 C458.546,81.698 459.624,81.519 463.542,81.375 C468.934,81.195 471.953,81.626 475.655,83.172 C486.079,87.521 492.944,97.334 492.944,107.974 C492.944,110.13 492.441,110.669 491.507,109.519 C490.931,108.836 487.948,108.8 487.014,109.483 C486.367,109.95 486.331,110.669 486.331,122.028 C486.295,133.386 486.331,134.105 486.978,134.824 C487.984,135.938 490.428,135.866 491.722,134.68 C492.261,134.177 493.124,133.781 493.627,133.781 C496.143,133.746 499.738,130.762 500.493,128.066 C500.996,126.197 500.924,118.397 500.349,116.852 C500.097,116.133 499.486,115.019 498.947,114.336 C498.12,113.221 497.977,112.682 497.797,109.16 C497.258,99.275 494.382,92.194 488.487,86.048 C484.21,81.555 479.753,78.823 474.002,77.133 C470.012,75.983 462.859,75.624 459.013,76.451" />
            <path d="M467.783,98.916 C467.1,99.599 467.065,100.102 467.065,116.816 C467.065,131.769 467.136,134.069 467.64,134.788 C468.143,135.507 468.466,135.579 471.378,135.579 C474.181,135.579 474.649,135.507 474.972,134.896 C475.188,134.464 475.332,129.935 475.368,122.926 L475.404,111.676 L476.59,122.279 C478.027,135.004 478.063,135.111 478.926,135.579 C479.753,136.01 482.772,135.651 483.886,135.004 C484.965,134.321 484.929,134.141 483.239,118.829 C482.449,111.748 481.802,105.637 481.802,105.278 C481.802,104.954 481.478,104.343 481.047,103.912 C480.4,103.265 480.04,103.193 478.459,103.409 C477.416,103.552 476.302,103.804 475.979,104.02 C475.404,104.307 475.332,104.092 475.332,101.827 C475.332,98.592 474.864,98.197 471.126,98.197 C468.97,98.197 468.359,98.341 467.783,98.916 M445.857,103.552 C445.642,104.02 445.498,109.627 445.498,119.368 C445.498,132.595 445.57,134.5 446.073,135.004 C446.9,135.83 451.68,135.83 452.363,134.968 C452.759,134.5 452.867,131.553 452.867,119.224 C452.867,106.895 452.759,103.948 452.363,103.481 C452.004,103.013 451.249,102.869 449.057,102.869 C446.648,102.869 446.181,102.977 445.857,103.552 M455.059,109.196 C454.556,109.663 454.484,111.352 454.484,122.1 C454.484,132.847 454.556,134.536 455.059,135.004 C455.886,135.866 464.261,135.83 464.944,134.968 C465.339,134.5 465.447,131.984 465.447,122.1 C465.447,112.215 465.339,109.699 464.944,109.232 C464.261,108.369 455.886,108.333 455.059,109.196 M462.572,113.473 C462.572,113.653 461.385,113.868 459.984,113.94 C457.791,114.012 457.36,113.94 457.36,113.473 C457.36,113.006 457.791,112.934 459.984,113.006 C461.385,113.078 462.572,113.257 462.572,113.473 M462.5,130.439 C463.147,131.05 461.924,131.445 459.732,131.337 C457.971,131.229 457.36,131.086 457.36,130.69 C457.36,130.295 457.935,130.187 459.804,130.187 C461.17,130.187 462.392,130.295 462.5,130.439 M432.882,140.647 C432.486,141.438 432.594,145.068 433.025,145.499 C433.133,145.643 447.403,145.823 464.692,145.931 C489.817,146.074 496.251,146.002 496.718,145.643 C497.509,144.996 497.473,140.431 496.682,140.108 C496.359,140 481.981,139.892 464.728,139.892 L433.313,139.892 Z" />
        </g>
        <g id="Black-S">
            <path d="M659.013,76.451 C648.266,78.679 639.711,85.401 635.254,95.106 C633.205,99.491 632.522,102.51 632.307,108.009 C632.127,112.467 632.019,113.114 631.3,113.94 C629.467,116.169 629.251,117.067 629.179,122.603 C629.143,127.743 629.179,127.887 630.15,129.54 C631.444,131.769 632.99,132.919 635.613,133.566 C636.764,133.889 638.058,134.464 638.489,134.86 C639.531,135.83 641.868,135.83 642.91,134.86 C643.701,134.105 643.701,133.997 643.701,122.1 C643.701,110.094 643.701,110.094 642.91,109.555 C641.904,108.836 639.495,108.836 638.309,109.519 C637.806,109.807 637.267,110.022 637.087,110.058 C636.656,110.058 637.123,104.775 637.77,101.935 C639.747,93.38 646.864,85.76 655.85,82.633 C658.546,81.698 659.624,81.519 663.542,81.375 C668.934,81.195 671.953,81.626 675.655,83.172 C686.079,87.521 692.944,97.334 692.944,107.974 C692.944,110.13 692.441,110.669 691.507,109.519 C690.931,108.836 687.948,108.8 687.014,109.483 C686.367,109.95 686.331,110.669 686.331,122.028 C686.295,133.386 686.331,134.105 686.978,134.824 C687.984,135.938 690.428,135.866 691.722,134.68 C692.261,134.177 693.124,133.781 693.627,133.781 C696.143,133.746 699.738,130.762 700.493,128.066 C700.996,126.197 700.924,118.397 700.349,116.852 C700.097,116.133 699.486,115.019 698.947,114.336 C698.12,113.221 697.977,112.682 697.797,109.16 C697.258,99.275 694.382,92.194 688.487,86.048 C684.21,81.555 679.753,78.823 674.002,77.133 C670.012,75.983 662.859,75.624 659.013,76.451" />
            <path d="M667.783,98.916 C667.1,99.599 667.065,100.102 667.065,116.816 C667.065,131.769 667.136,134.069 667.64,134.788 C668.143,135.507 668.466,135.579 671.378,135.579 C674.182,135.579 674.649,135.507 674.972,134.896 C675.188,134.464 675.332,129.935 675.368,122.926 L675.404,111.676 L676.59,122.279 C678.028,135.004 678.063,135.111 678.926,135.579 C679.753,136.01 682.772,135.651 683.886,135.004 C684.965,134.321 684.929,134.141 683.239,118.829 C682.449,111.748 681.802,105.637 681.802,105.278 C681.802,104.954 681.478,104.343 681.047,103.912 C680.4,103.265 680.04,103.193 678.459,103.409 C677.417,103.552 676.302,103.804 675.979,104.02 C675.404,104.307 675.332,104.092 675.332,101.827 C675.332,98.592 674.864,98.197 671.126,98.197 C668.97,98.197 668.359,98.341 667.783,98.916 M645.857,103.552 C645.642,104.02 645.498,109.627 645.498,119.368 C645.498,132.595 645.57,134.5 646.073,135.004 C646.9,135.83 651.68,135.83 652.363,134.968 C652.759,134.5 652.867,131.553 652.867,119.224 C652.867,106.895 652.759,103.948 652.363,103.481 C652.004,103.013 651.249,102.869 649.057,102.869 C646.648,102.869 646.181,102.977 645.857,103.552 M655.059,109.196 C654.556,109.663 654.484,111.352 654.484,122.1 C654.484,132.847 654.556,134.536 655.059,135.004 C655.886,135.866 664.261,135.83 664.944,134.968 C665.339,134.5 665.447,131.984 665.447,122.1 C665.447,112.215 665.339,109.699 664.944,109.232 C664.261,108.369 655.886,108.333 655.059,109.196 M662.572,113.473 C662.572,113.653 661.385,113.868 659.984,113.94 C657.791,114.012 657.36,113.94 657.36,113.473 C657.36,113.006 657.791,112.934 659.984,113.006 C661.385,113.078 662.572,113.257 662.572,113.473 M662.5,130.439 C663.147,131.05 661.925,131.445 659.732,131.337 C657.971,131.229 657.36,131.086 657.36,130.69 C657.36,130.295 657.935,130.187 659.804,130.187 C661.17,130.187 662.392,130.295 662.5,130.439 M632.882,140.647 C632.486,141.438 632.594,145.068 633.025,145.499 C633.133,145.643 647.403,145.823 664.692,145.931 C689.817,146.074 696.251,146.002 696.719,145.643 C697.509,144.996 697.473,140.431 696.683,140.108 C696.359,140 681.981,139.892 664.728,139.892 L633.313,139.892 Z" />
        </g>
    </g>
</svg>